<svg id="Layer_1" data-name="Layer 1" xmlns="http://www.w3.org/2000/svg" viewBox="0 0 2000 2000"><defs><style>.cls-1{fill:#14102a;}</style></defs><title>boli1Artboard 2</title><path class="cls-1" d="M384.21,1204.55H332V1008.68h40.29c29.15,0,41.34,2.12,53,9.54,14,9,22.26,24.39,22.26,42.67s-6.1,28.63-21.73,36.85c24.91,10.33,33.39,25.18,33.39,48.5C459.22,1182,434.57,1204.55,384.21,1204.55Zm-1.06-160.35H368.31v40H380c22,0,31.28-6.1,31.28-20.14C411.25,1050.56,402,1044.2,383.15,1044.2Zm2.39,75.54H368.31v50.09h18c25.45,0,36.32-7.42,36.32-24.39C422.65,1128,410.72,1119.74,385.54,1119.74Z"/><path class="cls-1" d="M553.58,1208c-42.94,0-77.93-34.46-77.93-76.87,0-42.14,35-76.86,77.66-76.86,44.27,0,78.46,34.19,78.46,77.92C631.77,1173.54,596.25,1208,553.58,1208Zm0-121.4c-23.06,0-42.41,19.88-42.41,44,0,25.18,18.82,45.06,42.67,45.06,23.33,0,42.41-19.88,42.41-44.53C596.25,1106.75,577.17,1086.6,553.58,1086.6Z"/><path class="cls-1" d="M651.65,1204.55V1008.68H686.9v195.87Z"/><path class="cls-1" d="M715.26,1204.55V1057.71h35.25v146.84Zm.26-168v-35.25h35.25v35.25Z"/><path class="cls-1" d="M823.39,1208c-29.15,0-50.09-15.91-53.8-50.1h35.52c3.44,12.46,9.27,17.76,19.61,17.76,9,0,15.9-6.1,15.9-14.31,0-8.48-1.32-10.87-24.91-18.82-29.16-9.81-40.82-22-40.82-43.47,0-25.18,21.47-44.79,48.77-44.79,24.91,0,46.91,16.43,48.24,44H837.44c-1.59-7.69-6.36-11.67-13.78-11.67-7.69,0-13.52,5.31-13.52,12.46,0,7.69.8,8.22,24.92,15.9,30.74,9.55,40.81,21.21,40.81,42.94C875.87,1186,852.81,1208,823.39,1208Z"/><path class="cls-1" d="M1041,1146.77H927.29c4.24,17.76,19.61,28.89,40.55,28.89,14.58,0,23.33-4,32.34-14.58h38.43c-9.81,30.22-40.29,46.92-70,46.92-44.79,0-79.52-33.4-79.52-76.34a76.81,76.81,0,0,1,77.4-77.39c43.73,0,75.8,33.39,75.8,79A57.14,57.14,0,0,1,1041,1146.77Zm-74-60.17c-20.94,0-35.25,10.34-40.82,29.16h81.37C1003.09,1096.94,988.78,1086.6,967.05,1086.6Z"/><path class="cls-1" d="M1109.65,1208c-29.16,0-50.1-15.91-53.81-50.1h35.52c3.44,12.46,9.27,17.76,19.61,17.76,9,0,15.9-6.1,15.9-14.31,0-8.48-1.32-10.87-24.91-18.82-29.16-9.81-40.82-22-40.82-43.47,0-25.18,21.47-44.79,48.77-44.79,24.91,0,46.91,16.43,48.24,44h-34.46c-1.59-7.69-6.36-11.67-13.78-11.67-7.69,0-13.52,5.31-13.52,12.46,0,7.69.8,8.22,24.92,15.9,30.74,9.55,40.81,21.21,40.81,42.94C1162.12,1186,1139.07,1208,1109.65,1208Z"/><path class="cls-1" d="M1226.26,1208c-29.15,0-50.09-15.91-53.8-50.1H1208c3.44,12.46,9.27,17.76,19.61,17.76,9,0,15.9-6.1,15.9-14.31,0-8.48-1.32-10.87-24.91-18.82-29.16-9.81-40.82-22-40.82-43.47,0-25.18,21.47-44.79,48.77-44.79,24.91,0,46.91,16.43,48.24,44h-34.46c-1.59-7.69-6.36-11.67-13.78-11.67-7.69,0-13.52,5.31-13.52,12.46,0,7.69.8,8.22,24.92,15.9,30.74,9.55,40.81,21.21,40.81,42.94C1278.74,1186,1255.68,1208,1226.26,1208Z"/><path class="cls-1" d="M1298.36,1204.55V1057.71h35.25v146.84Zm.26-168v-35.25h35.25v35.25Z"/><path class="cls-1" d="M1433.53,1208c-42.94,0-77.93-34.46-77.93-76.87,0-42.14,35-76.86,77.66-76.86,44.27,0,78.46,34.19,78.46,77.92C1511.72,1173.54,1476.2,1208,1433.53,1208Zm0-121.4c-23.06,0-42.41,19.88-42.41,44,0,25.18,18.82,45.06,42.67,45.06,23.33,0,42.41-19.88,42.41-44.53C1476.2,1106.75,1457.12,1086.6,1433.53,1086.6Z"/><path class="cls-1" d="M1626.75,1204.55v-71.83c0-39.22-10.6-46.12-28.1-46.12-11.13,0-20.4,4.77-26,13.52-4.51,7.16-5.83,15.64-5.83,35.25v69.18H1531.6V1057.71h32.6v14c13-12.46,24.65-17.49,41.35-17.49,20.4,0,36.31,7.42,45.85,21.2,7.95,11.4,10.6,24.12,10.6,50.36v78.72Z"/></svg>