<svg id="Layer_1" data-name="Layer 1" xmlns="http://www.w3.org/2000/svg" viewBox="0 0 2000 2000"><defs><style>.cls-1{fill:#fcd264;}.cls-1,.cls-2,.cls-3,.cls-4,.cls-5,.cls-6,.cls-7,.cls-8,.cls-9{opacity:0.75;}.cls-2{fill:#fedc3b;}.cls-3{fill:#d95db4;}.cls-4{fill:#ed1c24;}.cls-5{fill:#f25b50;}.cls-6{fill:#ff9e21;}.cls-7{fill:#29abe2;}.cls-8{fill:#fa3e75;}.cls-9{fill:#ad7802;}</style></defs><title>boliArtboard 1</title><path class="cls-1" d="M1301.15,1282.94c.93-10.17-.73-20.11-2.57-30,2.09,1.57,4.22,3.09,6.25,4.73,27.65,22.33,51.36,20.79,76.08-5.05,14.52-15.18,23.91-33.53,31.84-52.67,18.9-45.59,27.15-93.47,30.4-142.44,4.75-71.56-.19-142.06-22.42-210.73-9.06-28-21.16-54.32-41.78-75.92-23.19-24.3-52.18-24.71-76-1.18-16.65,16.43-28.09,36.23-36,58-38.2,105.36-40,212.75-16.21,321.15,8.34,38,22.77,73.8,48,104.3-20.46,4.09-35.1-5.32-49.67-18.67-30.2-27.67-61.37-54.33-92.94-80.43-8.41-7-16.28-14.66-25.38-20.88s-9.89-11-2.89-20.06c19.9-25.75,40.12-51.26,60.17-76.89a110.14,110.14,0,0,0,8.51-11.62c3.14-5.34,7.56-7.69,13.58-7.6s9-2.51,10.09-9.07c.93-5.48,2.19-10.9,1.36-16.3-1.22-8-4.54-14-14.6-12.23a15.25,15.25,0,0,1-15.53-5.93c-21.8-28.3-43.47-56.71-65.5-84.83-4.67-5.95-2.13-9.22,2.39-13,11.11-9.22,22.13-18.55,33.18-27.85,22.67-19.07,44.46-39.15,67.54-57.75,9.52-7.67,18.3-16.27,27.86-24a14,14,0,0,1,13.54-2.78c25.45,7.74,34.72-5.65,28.56-33.61,12.87-.93,25,3.45,37.36,4.43,37.23,3,57.91,27.6,74.53,57.3,22,39.26,32.54,82.06,39.43,126.12,5.82,37.14,8.87,74.44,7.28,112-3,70.14-12.08,139.07-45.35,202.44-18.72,35.67-47.1,57.73-88.08,62.75-7.21.88-14.85.19-21.83,3.08C1301.53,1292.82,1303.35,1287.71,1301.15,1282.94Zm-59.33-419.33c0-18.12-1.57-20-16.89-20-19.47,0-21.77,1.91-21.88,18.56-.13,18.41,2.3,21,19.48,21.08C1240.53,883.27,1241.81,882,1241.82,863.61Zm-32.06,302.09c0,18.06,2.22,20.34,20.12,20.38,16,0,19.38-3.58,19.18-20.77-.17-15.42-3.87-18.86-20.33-18.87C1211.86,1146.42,1209.79,1148.52,1209.76,1165.7Z"/><path class="cls-2" d="M980.16,1026.27a13.66,13.66,0,0,1,9.86,3.81c34.48,30,68.9,60.06,103.79,89.57,5.77,4.88,4.6,8.27,1.15,12.72-28,36-55.73,72.2-84.08,107.91-13.38,16.87-13.6,16.07-30.18,2.62-25.2-20.44-51-40.12-76.31-60.44-27.94-22.45-55.5-45.36-83.46-67.79-4.49-3.59-12.68-6.49-11.49-11.6,1.32-5.65,9.95-6.7,15.75-9.23,24.68-10.78,49.26-21.79,73.86-32.75,24.87-11.06,49.71-22.19,74.59-33.2C975.66,1027,978,1026.79,980.16,1026.27Z"/><path class="cls-3" d="M812.09,907.34c14-11.4,26.32-21.62,38.81-31.67q27.61-22.23,55.41-44.26C924.52,817,943.2,803.13,961,788.22c11.08-9.29,22.63-18,33.6-27.33,7.25-6.17,11.08-3.92,15.7,2q32.67,42,65.42,84c6.6,8.47,13.21,16.94,20,25.28,4.35,5.35,5.11,9.53-1,14.72q-50,42.45-99.46,85.58c-12.92,11.27-24.89,5.2-37.38-.45C931,960,904,948.07,877.12,936.13,856,926.75,834.86,917.41,812.09,907.34Z"/><path class="cls-4" d="M1301.15,1282.94c2.2,4.77.38,9.88,1.25,14.76-21.73,2.79-43.41,6-65.2,8.19-9,.9-18,1.16-27.09,2-29.25,2.68-58.65,1.58-88,2.06-21.18.34-42.27-.74-63.38-1.9-4.12-.23-8.2-1.53-12.26-2.51-3.71-.89-4.08-3.74-3.69-6.92,2.3-18.67-2.7-24.11-21.37-24-5,0-12.27,2.72-14.66-1.58-3.11-5.61,4.45-9.4,7.49-13.43,24-31.74,48.55-63,72.93-94.44,5.12-6.6,10-13.37,15.32-19.85,6.78-8.33,12.36-8.66,20.7-1.47,43.39,37.42,86.66,75,130.23,112.18,6.52,5.57,9.74,11.34,9.73,20.09,0,15.36,2.32,17.11,18.08,17.16C1289.63,1293.26,1299.06,1295.16,1301.15,1282.94Z"/><path class="cls-5" d="M958.26,1018.7c-23.18,10.39-44.33,19.89-65.49,29.36-25.09,11.23-50.23,22.35-75.27,33.69-22.43,10.16-25.68,11.43-45.11-5.72-17.49-15.43-36.32-29.32-54.62-43.83-7.25-5.74-14.75-11.17-21.95-17-5.23-4.23-7.74-8.26-.53-13.87,15.09-11.76,29.49-24.4,44.35-36.47,15.85-12.87,32.18-25.18,47.74-38.4,7.69-6.53,15-7.71,24-3.68,42.56,19,85.12,38,127.89,56.57,6.73,2.92,5.61,8,4.7,12.11C941.32,1003.75,945.34,1012.3,958.26,1018.7Z"/><path class="cls-6" d="M1184.58,1007.23c.09,13.43-8.79,20.7-15.12,29.07-17.3,22.85-35.18,45.26-52.66,68-7,9-9.27,9-17.79,1.46-18-16-36.55-31.53-54.81-47.3-13.19-11.38-26.37-22.76-39.36-34.36-1.94-1.73-5-3.93,1.39-5.73,21.24-5.94,24.62-23.15,7.84-38.57-2.38-2.18-3.1-3-.79-4.92,19.47-16.31,39.26-32.25,58.37-49,10.92-9.56,21.35-19.66,32.85-28.61,5.61-4.38,8.77-2.24,12.09,2,20.19,25.94,40,52.14,60.64,77.75C1185.06,986.79,1180.38,998.52,1184.58,1007.23Z"/><path class="cls-7" d="M956.43,1292c-17.84-4-37.39-9.48-56.84-15.64-48-15.17-93-36.11-134.23-65-19.56-13.67-38.28-28.34-55-45.49-4.24-4.35-5.67-7.14,1.44-8.76,5.69-1.3,8.51-4.52,8.32-10.27-.17-5.16,3.56-8,7.14-9.65,18.71-8.74,37.57-17.19,56.6-25.21,4.46-1.88,9.13-.94,13.6,2.72,22.41,18.4,45.19,36.35,67.84,54.46q51.56,41.22,103.11,82.45c6.62,5.31,12.93,11,19.48,16.38,1.75,1.44,4.38,2.36,3.25,5.22-1,2.47-3.36,1-5.14,1.09-9.83.77-19.09,2.14-20.44,14.84C965.1,1293.58,961.36,1292.18,956.43,1292Z"/><path class="cls-4" d="M1136.06,716.19c41.75-.76,81.07,3.79,120.51,6.14,8.81.52,9.32,4.49,6.44,11.62-6,14.81-18.78,23.2-30.07,32.95-29.91,25.82-60,51.39-90.08,77.05-8.69,7.42-17.45,14.76-26,22.28-3.14,2.74-5.25,2.77-8-.76-17.56-22.82-35.32-45.49-53-68.24-8.1-10.45-15.78-21.25-24.32-31.32-4.78-5.63-5.53-8.55,2.2-11.8,10-4.21,13.58-11.7,10.61-22.39-2.37-8.5-.26-11.37,8.65-11.81C1081.4,718.49,1109.7,715.16,1136.06,716.19Z"/><path class="cls-7" d="M720,856.39c-.76-7.78,4.76-11.32,9-14.84a518.78,518.78,0,0,1,54.26-39.27c53.08-33.42,111.31-53.65,171.89-68.07,6.63-1.58,11.13-1,10.79,7.29-.13,3.13,1.11,6.27,3.29,7.88,8.07,6,5.3,9.39-1.36,14.63-45.26,35.63-90.18,71.68-135.16,107.66-8.14,6.51-16.42,12.91-24,20-8.31,7.79-16.37,8.31-26.31,3-14.5-7.75-29.71-14.05-45.08-20C729.11,871.49,719.35,867.87,720,856.39Z"/><path class="cls-8" d="M670.56,974.64c4.11-26.72,7.76-53.82,18.69-79.35,2.23-5.21,5.19-6.75,10.35-6.49,6,.3,11.93,1.33,17.67-3.1,2.9-2.24,8.16-1.52,12.26.35,15.63,7.11,31.2,14.36,47,21.19,6.65,2.88,5.81,5.56,1,9.41Q736,950,694.66,983.54c-6.63,5.37-14.39,4.49-21.48,2.82C666.72,984.83,672.45,978.81,670.56,974.64Z"/><path class="cls-8" d="M776.84,1098.87c-18.63,8.08-36,15.67-53.49,23.12a5.59,5.59,0,0,1-5.56-.77c-6.13-4.26-12.37-5.34-20-3-6.39,2-11.81.32-14.53-8.26a254.64,254.64,0,0,1-11.5-62.88c-.17-2.94-.76-5.91-.52-8.8.32-3.69-5.63-7.86.48-11,5.3-2.73,11.1-2.66,15.91.69,7.75,5.38,15,11.41,22.42,17.31C731.92,1062.75,753.73,1080.31,776.84,1098.87Z"/><path class="cls-9" d="M1408.09,1013.3c-.53,25.93-5.33,49.71-21.1,70-19.08,24.56-47.11,24.67-66.31,0-18.1-23.21-22.43-50.47-20.84-78.88,1.26-22.59,7.19-43.86,22-61.8,18.47-22.4,45.44-22.56,63.83-.12C1402.72,963.37,1407.61,988.11,1408.09,1013.3Z"/></svg>