<svg id="Layer_1" data-name="Layer 1" xmlns="http://www.w3.org/2000/svg" viewBox="0 0 2000 2000"><defs><style>.cls-1{fill:#14102a;}.cls-2{fill:#fcd264;}.cls-10,.cls-2,.cls-3,.cls-4,.cls-5,.cls-6,.cls-7,.cls-8,.cls-9{opacity:0.75;}.cls-3{fill:#fedc3b;}.cls-4{fill:#d95db4;}.cls-5{fill:#ed1c24;}.cls-6{fill:#f25b50;}.cls-7{fill:#ff9e21;}.cls-8{fill:#29abe2;}.cls-9{fill:#fa3e75;}.cls-10{fill:#ad7802;}</style></defs><title>boliArtboard 2</title><path class="cls-1" d="M788.79,1140.18H753.11V1006.33h27.53c19.92,0,28.26,1.45,36.23,6.52,9.6,6.16,15.21,16.66,15.21,29.16s-4.17,19.56-14.85,25.18c17,7.06,22.82,17.21,22.82,33.15C840.05,1124.79,823.21,1140.18,788.79,1140.18Zm-.72-109.58H777.92V1058h8c15,0,21.38-4.16,21.38-13.76C807.27,1035,800.93,1030.6,788.07,1030.6Zm1.63,51.62H777.92v34.24h12.32c17.39,0,24.81-5.08,24.81-16.67C815.05,1087.84,806.9,1082.22,789.7,1082.22Z"/><path class="cls-1" d="M904.53,1142.54c-29.34,0-53.25-23.55-53.25-52.53,0-28.8,23.91-52.53,53.07-52.53,30.25,0,53.61,23.37,53.61,53.26C958,1119,933.69,1142.54,904.53,1142.54Zm0-83c-15.76,0-29,13.59-29,30.07,0,17.21,12.86,30.79,29.16,30.79,15.94,0,29-13.58,29-30.43C933.69,1073.35,920.65,1059.58,904.53,1059.58Z"/><path class="cls-1" d="M971.55,1140.18V1006.33h24.09v133.85Z"/><path class="cls-1" d="M1015,1140.18V1039.84h24.09v100.34Zm.18-114.83v-24.09h24.09v24.09Z"/><path class="cls-1" d="M1088.92,1142.54c-19.93,0-34.24-10.87-36.77-34.24h24.27c2.35,8.52,6.34,12.14,13.4,12.14,6.16,0,10.87-4.17,10.87-9.78,0-5.8-.91-7.43-17-12.86-19.92-6.7-27.89-15-27.89-29.7,0-17.21,14.67-30.62,33.33-30.62,17,0,32.06,11.23,33,30.07h-23.54c-1.09-5.25-4.35-8-9.42-8-5.26,0-9.24,3.62-9.24,8.52,0,5.25.54,5.61,17,10.86,21,6.52,27.89,14.49,27.89,29.34C1124.78,1127.5,1109,1142.54,1088.92,1142.54Z"/><path class="cls-1" d="M1237.62,1100.7h-77.7c2.9,12.13,13.4,19.74,27.71,19.74,10,0,15.94-2.72,22.1-10H1236c-6.7,20.65-27.53,32.06-47.82,32.06-30.61,0-54.34-22.82-54.34-52.17a52.5,52.5,0,0,1,52.89-52.89c29.89,0,51.81,22.83,51.81,54A39.27,39.27,0,0,1,1237.62,1100.7Zm-50.53-41.12c-14.31,0-24.09,7.07-27.9,19.93h55.61C1211.72,1066.65,1201.94,1059.58,1187.09,1059.58Z"/><path class="cls-1" d="M1284.53,1142.54c-19.92,0-34.23-10.87-36.77-34.24H1272c2.35,8.52,6.34,12.14,13.4,12.14,6.16,0,10.87-4.17,10.87-9.78,0-5.8-.91-7.43-17-12.86-19.92-6.7-27.89-15-27.89-29.7,0-17.21,14.67-30.62,33.32-30.62,17,0,32.06,11.23,33,30.07h-23.55c-1.08-5.25-4.34-8-9.42-8-5.25,0-9.23,3.62-9.23,8.52,0,5.25.54,5.61,17,10.86,21,6.52,27.9,14.49,27.9,29.34C1320.4,1127.5,1304.64,1142.54,1284.53,1142.54Z"/><path class="cls-1" d="M1364.23,1142.54c-19.93,0-34.23-10.87-36.77-34.24h24.27c2.36,8.52,6.34,12.14,13.4,12.14,6.16,0,10.87-4.17,10.87-9.78,0-5.8-.9-7.43-17-12.86-19.93-6.7-27.9-15-27.9-29.7,0-17.21,14.67-30.62,33.33-30.62,17,0,32.06,11.23,33,30.07h-23.54c-1.09-5.25-4.35-8-9.42-8-5.25,0-9.24,3.62-9.24,8.52,0,5.25.55,5.61,17,10.86,21,6.52,27.89,14.49,27.89,29.34C1400.09,1127.5,1384.33,1142.54,1364.23,1142.54Z"/><path class="cls-1" d="M1413.49,1140.18V1039.84h24.09v100.34Zm.19-114.83v-24.09h24.08v24.09Z"/><path class="cls-1" d="M1505.87,1142.54c-29.35,0-53.25-23.55-53.25-52.53,0-28.8,23.9-52.53,53.07-52.53,30.24,0,53.61,23.37,53.61,53.26C1559.3,1119,1535,1142.54,1505.87,1142.54Zm0-83c-15.76,0-29,13.59-29,30.07,0,17.21,12.86,30.79,29.16,30.79,15.94,0,29-13.58,29-30.43C1535,1073.35,1522,1059.58,1505.87,1059.58Z"/><path class="cls-1" d="M1637.91,1140.18V1091.1c0-26.81-7.25-31.52-19.2-31.52-7.61,0-14,3.26-17.75,9.24-3.08,4.89-4,10.69-4,24.09v47.27h-24.09V1039.84h22.27v9.6c8.88-8.51,16.85-12,28.26-12,13.95,0,24.81,5.08,31.33,14.49,5.44,7.79,7.25,16.49,7.25,34.42v53.79Z"/><path class="cls-2" d="M593.49,1194.9c.43-4.64-.33-9.17-1.17-13.69.95.72,1.93,1.41,2.85,2.15,12.6,10.18,23.4,9.48,34.67-2.3,6.61-6.91,10.89-15.27,14.51-24,8.61-20.78,12.37-42.59,13.85-64.91,2.16-32.6-.09-64.73-10.22-96-4.12-12.75-9.64-24.75-19-34.59-10.57-11.07-23.78-11.26-34.65-.54a69.9,69.9,0,0,0-16.38,26.42c-17.41,48-18.23,96.94-7.39,146.33,3.8,17.32,10.38,33.63,21.89,47.53-9.32,1.86-16-2.43-22.63-8.51-13.76-12.61-28-24.75-42.35-36.65-3.83-3.17-7.42-6.68-11.56-9.51s-4.51-5-1.32-9.14c9.07-11.73,18.28-23.36,27.42-35a49.75,49.75,0,0,0,3.87-5.29,6.49,6.49,0,0,1,6.19-3.46c2.81,0,4.09-1.15,4.6-4.14.42-2.49,1-5,.62-7.43-.56-3.63-2.07-6.39-6.65-5.57a6.94,6.94,0,0,1-7.08-2.7c-9.94-12.89-19.81-25.84-29.85-38.65-2.13-2.72-1-4.2,1.09-5.91,5.07-4.2,10.09-8.45,15.12-12.69,10.33-8.69,20.26-17.84,30.78-26.31,4.33-3.5,8.33-7.42,12.69-10.93a6.36,6.36,0,0,1,6.17-1.27c11.6,3.52,15.82-2.57,13-15.31,5.87-.43,11.37,1.57,17,2,17,1.34,26.38,12.57,33.95,26.1,10,17.89,14.83,37.39,18,57.47a258.84,258.84,0,0,1,3.32,51c-1.35,32-5.5,63.37-20.66,92.25-8.54,16.25-21.47,26.3-40.14,28.59-3.29.4-6.76.08-10,1.4C593.67,1199.4,594.5,1197.07,593.49,1194.9Zm-27-191.07c0-8.26-.71-9.11-7.7-9.13-8.87,0-9.91.88-10,8.46,0,8.39,1.05,9.59,8.88,9.61C565.87,1012.79,566.46,1012.19,566.46,1003.83Zm-14.61,137.65c0,8.23,1,9.27,9.17,9.28,7.31,0,8.83-1.63,8.74-9.46-.08-7-1.76-8.59-9.26-8.6C552.81,1132.69,551.87,1133.65,551.85,1141.48Z"/><path class="cls-3" d="M447.23,1078a6.22,6.22,0,0,1,4.5,1.73c15.71,13.67,31.39,27.37,47.29,40.81,2.63,2.23,2.1,3.77.52,5.8-12.74,16.42-25.39,32.9-38.31,49.17-6.1,7.69-6.19,7.32-13.75,1.19-11.48-9.31-23.24-18.28-34.77-27.54-12.73-10.22-25.29-20.67-38-30.88-2.05-1.64-5.78-3-5.23-5.29.6-2.58,4.53-3,7.17-4.21,11.25-4.91,22.45-9.93,33.66-14.92s22.64-10.11,34-15.13A16.85,16.85,0,0,1,447.23,1078Z"/><path class="cls-4" d="M370.65,1023.75c6.36-5.19,12-9.85,17.68-14.43q12.6-10.12,25.25-20.17c8.3-6.57,16.81-12.88,24.92-19.68,5-4.23,10.31-8.19,15.31-12.45,3.3-2.81,5-1.78,7.15.93q14.88,19.15,29.81,38.28c3,3.86,6,7.72,9.1,11.52,2,2.44,2.33,4.34-.45,6.71q-22.8,19.35-45.32,39c-5.89,5.14-11.34,2.37-17-.2-12.23-5.53-24.51-10.93-36.77-16.38Z"/><path class="cls-5" d="M593.49,1194.9c1,2.17.18,4.5.57,6.72-9.9,1.28-19.78,2.74-29.7,3.73-4.1.41-8.23.53-12.35.91-13.32,1.22-26.72.72-40.09.94-9.65.15-19.26-.34-28.88-.87a31.16,31.16,0,0,1-5.59-1.14c-1.69-.4-1.86-1.7-1.68-3.15,1.05-8.51-1.23-11-9.74-11-2.29,0-5.59,1.24-6.68-.72-1.41-2.55,2-4.28,3.42-6.12,10.92-14.46,22.12-28.71,33.23-43,2.33-3,4.57-6.09,7-9,3.09-3.8,5.63-4,9.43-.67,19.77,17,39.49,34.16,59.34,51.11,3,2.54,4.44,5.17,4.44,9.16,0,7,1,7.79,8.23,7.82C588.25,1199.6,592.54,1200.47,593.49,1194.9Z"/><path class="cls-6" d="M437.26,1074.5l-29.85,13.38c-11.43,5.11-22.88,10.18-34.29,15.34-10.22,4.63-11.7,5.21-20.56-2.6-8-7-16.55-13.36-24.88-20-3.31-2.62-6.73-5.09-10-7.74-2.38-1.93-3.52-3.77-.24-6.33,6.88-5.35,13.44-11.11,20.21-16.61,7.22-5.87,14.66-11.48,21.75-17.5,3.51-3,6.85-3.51,11-1.68,19.39,8.67,38.78,17.33,58.27,25.78,3.07,1.33,2.56,3.63,2.14,5.52C429.54,1067.68,431.37,1071.58,437.26,1074.5Z"/><path class="cls-7" d="M540.38,1069.27c0,6.12-4,9.43-6.89,13.24-7.88,10.42-16,20.63-24,31-3.17,4.13-4.22,4.11-8.1.67-8.22-7.3-16.65-14.37-25-21.56-6-5.18-12-10.37-17.93-15.65-.88-.79-2.3-1.79.63-2.61,9.68-2.71,11.22-10.55,3.57-17.58-1.08-1-1.41-1.36-.35-2.24,8.87-7.43,17.88-14.69,26.59-22.31,5-4.36,9.73-9,15-13,2.56-2,4-1,5.51.93,9.2,11.81,18.25,23.75,27.63,35.42C540.6,1060,538.47,1065.3,540.38,1069.27Z"/><path class="cls-8" d="M436.42,1199c-8.13-1.82-17-4.32-25.9-7.12-21.85-6.92-42.36-16.46-61.16-29.6a173.24,173.24,0,0,1-25.06-20.73c-1.93-2-2.59-3.25.65-4,2.6-.6,3.88-2.06,3.8-4.68-.08-2.35,1.62-3.64,3.25-4.4q12.79-6,25.79-11.49c2-.85,4.16-.43,6.19,1.24,10.22,8.39,20.6,16.57,30.92,24.82q23.49,18.78,47,37.57c3,2.41,5.89,5,8.88,7.46.79.66,2,1.08,1.48,2.38-.45,1.13-1.54.43-2.35.49-4.48.36-8.69,1-9.31,6.77C440.37,1199.75,438.67,1199.11,436.42,1199Z"/><path class="cls-5" d="M518.27,936.66c19-.35,36.94,1.72,54.91,2.79,4,.24,4.25,2,2.94,5.3-2.72,6.75-8.56,10.57-13.71,15-13.63,11.77-27.35,23.42-41,35.11-4,3.38-8,6.73-11.87,10.15-1.43,1.25-2.39,1.27-3.63-.34-8-10.4-16.09-20.73-24.14-31.1-3.69-4.76-7.19-9.68-11.08-14.27-2.18-2.57-2.52-3.89,1-5.38,4.56-1.91,6.19-5.33,4.84-10.2-1.08-3.87-.12-5.18,3.94-5.38C493.37,937.71,506.26,936.19,518.27,936.66Z"/><path class="cls-8" d="M328.7,1000.54c-.35-3.55,2.17-5.16,4.11-6.76a236.58,236.58,0,0,1,24.72-17.9c24.19-15.22,50.72-24.44,78.32-31,3-.72,5.08-.46,4.92,3.32a4.29,4.29,0,0,0,1.5,3.59c3.68,2.72,2.41,4.28-.62,6.67-20.63,16.23-41.09,32.66-61.59,49-3.71,3-7.48,5.89-10.94,9.13-3.78,3.55-7.46,3.79-12,1.37a185.85,185.85,0,0,0-20.54-9.12C332.84,1007.42,328.39,1005.77,328.7,1000.54Z"/><path class="cls-9" d="M306.17,1054.42c1.87-12.17,3.53-24.52,8.51-36.16,1-2.37,2.37-3.07,4.72-3,2.74.13,5.43.6,8.05-1.41,1.32-1,3.71-.7,5.58.15,7.12,3.24,14.22,6.55,21.4,9.66,3,1.31,2.64,2.53.46,4.29q-18.9,15.21-37.75,30.47c-3,2.45-6.55,2-9.78,1.29C304.41,1059.06,307,1056.32,306.17,1054.42Z"/><path class="cls-9" d="M354.59,1111c-8.49,3.68-16.42,7.14-24.37,10.53a2.56,2.56,0,0,1-2.54-.35,9.77,9.77,0,0,0-9.1-1.37c-2.92.89-5.39.14-6.63-3.77a116.6,116.6,0,0,1-5.24-28.65,30.15,30.15,0,0,1-.23-4c.14-1.68-2.57-3.58.22-5a6.86,6.86,0,0,1,7.25.31c3.53,2.46,6.85,5.2,10.21,7.89C334.12,1094.57,344.06,1102.57,354.59,1111Z"/><path class="cls-10" d="M642.22,1072c-.24,11.82-2.43,22.66-9.61,31.91-8.69,11.19-21.47,11.24-30.22,0-8.24-10.58-10.22-23-9.49-36,.57-10.29,3.27-20,10-28.16,8.42-10.2,20.7-10.28,29.08,0C639.78,1049.28,642,1060.56,642.22,1072Z"/></svg>